<?xml version="1.0" standalone="no"?>
<!DOCTYPE svg PUBLIC "-//W3C//DTD SVG 20010904//EN"
 "http://www.w3.org/TR/2001/REC-SVG-20010904/DTD/svg10.dtd">
<svg version="1.0" xmlns="http://www.w3.org/2000/svg"
 width="257.000000pt" height="257.000000pt" viewBox="0 0 257.000000 257.000000"
 preserveAspectRatio="xMidYMid meet">
<metadata>
Created by potrace 1.14, written by Peter Selinger 2001-2017
</metadata>
<g transform="translate(0.000000,257.000000) scale(0.100000,-0.100000)"
fill="#000000" stroke="none">
<path d="M340 2516 c-133 -37 -234 -138 -275 -272 -13 -42 -15 -176 -12 -974
l2 -925 33 -67 c55 -112 146 -187 261 -214 87 -21 1816 -20 1885 1 110 33 196
108 249 214 l32 66 0 945 0 945 -32 65 c-50 102 -147 186 -253 219 -8 3 -427
6 -930 7 -713 2 -925 0 -960 -10z"/>
</g>
</svg>
